<?xml version="1.0" ?>
<svg enable-background="new 0 0 32 32" height="32px" id="svg2" version="1.1" viewBox="0 0 32 32" width="32px"
     xml:space="preserve" xmlns="http://www.w3.org/2000/svg" xmlns:cc="http://creativecommons.org/ns#"
     xmlns:dc="http://purl.org/dc/elements/1.1/" xmlns:inkscape="http://www.inkscape.org/namespaces/inkscape"
     xmlns:rdf="http://www.w3.org/1999/02/22-rdf-syntax-ns#"
     xmlns:sodipodi="http://sodipodi.sourceforge.net/DTD/sodipodi-0.dtd" xmlns:svg="http://www.w3.org/2000/svg"><g id="background"><rect fill="none" height="32" width="32"/></g>
    <g id="recent_x5F_changes"><path d="M21.999,7c-5.522,0.002-10,4.48-10,10.001s4.478,9.997,10,9.999C27.521,26.998,32,22.522,32,17.001S27.523,7.001,21.999,7z    M21.999,25c-4.418-0.01-7.991-3.583-8-7.999c0.008-4.418,3.583-7.993,8-8.001c4.418,0.008,7.992,3.583,8,8.001   C29.991,21.417,26.417,24.99,21.999,25z M23,11h-2v7h5v-2h-3V11z"/>
        <path d="M10,2H2v8h8V2z M8,7.999H3.999v-4H8V7.999z M2,12v8h8v-8H2z M2,30h8v-8H2V30z"/></g></svg>